<svg width="81" height="82" viewBox="0 0 81 82" fill="none" xmlns="http://www.w3.org/2000/svg">
<ellipse cx="40.5" cy="41" rx="40.5" ry="41" fill="#519251"/>
<path d="M25.875 26.75H30.75V31.5H25.875V26.75Z" fill="#F8F8F8"/>
<path d="M35.625 22V36.25H21V22H35.625ZM33.1875 24.375H23.4375V33.875H33.1875V24.375ZM30.75 50.5H25.875V55.25H30.75V50.5Z" fill="#F8F8F8"/>
<path d="M35.625 45.75V60H21V45.75H35.625ZM23.4375 48.125V57.625H33.1875V48.125H23.4375ZM50.25 26.75H55.125V31.5H50.25V26.75Z" fill="#F8F8F8"/>
<path d="M45.375 22V36.25H60V22H45.375ZM57.5625 24.375V33.875H47.8125V24.375H57.5625ZM40.5 24.375V22H42.9375V26.75H40.5V31.5H38.0625V24.375H40.5ZM40.5 36.25V31.5H42.9375V36.25H40.5ZM35.625 41V38.625H38.0625V36.25H40.5V41H42.9375V38.625H55.125V41H45.375V43.375H38.0625V41H35.625ZM35.625 41V43.375H25.875V41H23.4375V43.375H21V38.625H28.3125V41H35.625ZM60 43.375H57.5625V38.625H60V43.375ZM57.5625 43.375H55.125V48.125H60V45.75H57.5625V43.375ZM47.8125 43.375H52.6875V45.75H50.25V48.125H47.8125V43.375ZM52.6875 50.5V48.125H50.25V50.5H47.8125V52.875H42.9375V55.25H50.25V50.5H52.6875ZM52.6875 50.5H60V52.875H55.125V55.25H52.6875V50.5ZM42.9375 48.125V50.5H45.375V45.75H38.0625V48.125H42.9375Z" fill="#F8F8F8"/>
<path d="M38.0625 50.5H40.5V57.625H50.25V60H38.0625V50.5ZM60 55.25V60H52.6875V57.625H57.5625V55.25H60Z" fill="#F8F8F8"/>
</svg>
