<svg width="27" height="28" viewBox="0 0 27 28" fill="none" xmlns="http://www.w3.org/2000/svg">
<rect width="27" height="28" rx="10" fill="white"/>
<path d="M8.65625 10.9375C8.51535 10.9375 8.38023 11.0066 8.2806 11.1297C8.18097 11.2528 8.125 11.4197 8.125 11.5938C8.125 11.7678 8.18097 11.9347 8.2806 12.0578C8.38023 12.1809 8.51535 12.25 8.65625 12.25H16.0938C16.2346 12.25 16.3698 12.1809 16.4694 12.0578C16.569 11.9347 16.625 11.7678 16.625 11.5938C16.625 11.4197 16.569 11.2528 16.4694 11.1297C16.3698 11.0066 16.2346 10.9375 16.0938 10.9375H8.65625ZM8.65625 13.5625C8.51535 13.5625 8.38023 13.6316 8.2806 13.7547C8.18097 13.8778 8.125 14.0447 8.125 14.2188V16.8438C8.125 17.0178 8.18097 17.1847 8.2806 17.3078C8.38023 17.4309 8.51535 17.5 8.65625 17.5H10.7812C10.9221 17.5 11.0573 17.4309 11.1569 17.3078C11.2565 17.1847 11.3125 17.0178 11.3125 16.8438V14.2188C11.3125 14.0447 11.2565 13.8778 11.1569 13.7547C11.0573 13.6316 10.9221 13.5625 10.7812 13.5625H8.65625ZM9.1875 16.1875V14.875H10.25V16.1875H9.1875ZM12.9062 13.5625C12.7654 13.5625 12.6302 13.6316 12.5306 13.7547C12.431 13.8778 12.375 14.0447 12.375 14.2188C12.375 14.3928 12.431 14.5597 12.5306 14.6828C12.6302 14.8059 12.7654 14.875 12.9062 14.875H16.0938C16.2346 14.875 16.3698 14.8059 16.4694 14.6828C16.569 14.5597 16.625 14.3928 16.625 14.2188C16.625 14.0447 16.569 13.8778 16.4694 13.7547C16.3698 13.6316 16.2346 13.5625 16.0938 13.5625H12.9062ZM12.9062 16.1875C12.7654 16.1875 12.6302 16.2566 12.5306 16.3797C12.431 16.5028 12.375 16.6697 12.375 16.8438C12.375 17.0178 12.431 17.1847 12.5306 17.3078C12.6302 17.4309 12.7654 17.5 12.9062 17.5H16.0938C16.2346 17.5 16.3698 17.4309 16.4694 17.3078C16.569 17.1847 16.625 17.0178 16.625 16.8438C16.625 16.6697 16.569 16.5028 16.4694 16.3797C16.3698 16.2566 16.2346 16.1875 16.0938 16.1875H12.9062ZM6 9.625C6 8.92881 6.22388 8.26113 6.6224 7.76884C7.02091 7.27656 7.56141 7 8.125 7H16.625C17.1886 7 17.7291 7.27656 18.1276 7.76884C18.5261 8.26113 18.75 8.92881 18.75 9.625C19.3136 9.625 19.8541 9.90156 20.2526 10.3938C20.6511 10.8861 20.875 11.5538 20.875 12.25V18.1562C20.875 19.0265 20.5951 19.8611 20.097 20.4764C19.5989 21.0918 18.9232 21.4375 18.2188 21.4375H8.65625C7.95177 21.4375 7.27614 21.0918 6.778 20.4764C6.27985 19.8611 6 19.0265 6 18.1562V9.625ZM18.2188 18.1562C18.0779 18.1562 17.9427 18.0871 17.8431 17.964C17.7435 17.841 17.6875 17.674 17.6875 17.5V9.625C17.6875 9.2769 17.5756 8.94306 17.3763 8.69692C17.177 8.45078 16.9068 8.3125 16.625 8.3125H8.125C7.84321 8.3125 7.57296 8.45078 7.3737 8.69692C7.17444 8.94306 7.0625 9.2769 7.0625 9.625V18.1562C7.0625 18.6784 7.23041 19.1792 7.5293 19.5484C7.82818 19.9176 8.23356 20.125 8.65625 20.125H18.2188C18.6414 20.125 19.0468 19.9176 19.3457 19.5484C19.6446 19.1792 19.8125 18.6784 19.8125 18.1562V12.25C19.8125 11.9019 19.7006 11.5681 19.5013 11.3219C19.302 11.0758 19.0318 10.9375 18.75 10.9375V17.5C18.75 17.674 18.694 17.841 18.5944 17.964C18.4948 18.0871 18.3596 18.1562 18.2188 18.1562Z" fill="#4BDCCA"/>
</svg>
