<svg width="108" height="89" viewBox="0 0 108 89" fill="none" xmlns="http://www.w3.org/2000/svg">
<g opacity="0.8">
<path d="M54 70.4584C53.9975 66.0788 55.3406 61.7699 57.9041 57.9335C60.4676 54.0971 64.1682 50.8581 68.6607 48.5183C73.1533 46.1785 78.2916 44.8142 83.5966 44.5525C88.9017 44.2908 94.2008 45.1403 99 47.0217V14.8334H9V74.1667H54.36C54.135 72.943 54 71.7192 54 70.4584ZM18 22.25L54 40.7917L90 22.25V29.6667L54 48.2084L18 29.6667V22.25ZM78.03 81.5834L62.1 68.4559L68.445 63.2271L77.985 71.0888L97.065 55.3655L103.5 60.5942L78.03 81.5834Z" fill="#111111"/>
</g>
</svg>
