<svg width="22" height="23" viewBox="0 0 22 23" fill="none" xmlns="http://www.w3.org/2000/svg">
<path d="M20.3438 9.96875H18.2852V3.625C18.2852 1.62275 16.5505 0 14.4102 0H6.90234C4.76201 0 3.02734 1.62275 3.02734 3.625V9.96875H0.96875C0.43291 9.96875 0 10.3737 0 10.875V21.75C0 22.2513 0.43291 22.6562 0.96875 22.6562H20.3438C20.8796 22.6562 21.3125 22.2513 21.3125 21.75V10.875C21.3125 10.3737 20.8796 9.96875 20.3438 9.96875ZM11.5039 16.6807V18.1816C11.5039 18.3063 11.3949 18.4082 11.2617 18.4082H10.0508C9.91758 18.4082 9.80859 18.3063 9.80859 18.1816V16.6807C9.5587 16.5128 9.37217 16.2751 9.27587 16.0018C9.17957 15.7285 9.17846 15.4336 9.2727 15.1597C9.36693 14.8857 9.55166 14.6468 9.80029 14.4773C10.0489 14.3078 10.3486 14.2165 10.6562 14.2165C10.9639 14.2165 11.2636 14.3078 11.5122 14.4773C11.7608 14.6468 11.9456 14.8857 12.0398 15.1597C12.134 15.4336 12.1329 15.7285 12.0366 16.0018C11.9403 16.2751 11.7538 16.5128 11.5039 16.6807V16.6807ZM16.1055 9.96875H5.20703V3.625C5.20703 2.7499 5.96689 2.03906 6.90234 2.03906H14.4102C15.3456 2.03906 16.1055 2.7499 16.1055 3.625V9.96875Z" fill="#111111" fill-opacity="0.8"/>
</svg>
