<svg width="27" height="28" viewBox="0 0 27 28" fill="none" xmlns="http://www.w3.org/2000/svg">
<rect width="27" height="28" rx="10" fill="white"/>
<path d="M12.3555 6.26562H13.6445C13.7591 6.26562 13.8164 6.32292 13.8164 6.4375V21.5625C13.8164 21.6771 13.7591 21.7344 13.6445 21.7344H12.3555C12.2409 21.7344 12.1836 21.6771 12.1836 21.5625V6.4375C12.1836 6.32292 12.2409 6.26562 12.3555 6.26562Z" fill="#4BDCCA"/>
<path d="M5.78125 13.1836H20.2188C20.3333 13.1836 20.3906 13.2409 20.3906 13.3555V14.6445C20.3906 14.7591 20.3333 14.8164 20.2188 14.8164H5.78125C5.66667 14.8164 5.60938 14.7591 5.60938 14.6445V13.3555C5.60938 13.2409 5.66667 13.1836 5.78125 13.1836Z" fill="#4BDCCA"/>
</svg>
