<svg width="94" height="98" viewBox="0 0 94 98" fill="none" xmlns="http://www.w3.org/2000/svg">
<path d="M61.6875 6.125C57.5591 6.12401 53.4879 7.13123 49.8002 9.06595C46.1124 11.0007 42.9106 13.8091 40.4513 17.2661C37.9921 20.7232 36.3437 24.7327 35.6384 28.9735C34.9331 33.2143 35.1904 37.5683 36.3897 41.6868L5.875 73.5V91.875H23.5L54.0148 60.0617C57.6511 61.2125 61.4826 61.5324 65.2483 60.9997C69.014 60.467 72.6252 59.0942 75.836 56.9749C79.0467 54.8555 81.7815 52.0395 83.8539 48.7186C85.9263 45.3977 87.2876 41.65 87.8451 37.731C88.4026 33.812 88.1431 29.8137 87.0844 26.0087C86.0257 22.2037 84.1926 18.6814 81.7101 15.6817C79.2276 12.6821 76.1539 10.2757 72.6986 8.62648C69.2434 6.97729 65.4877 6.12408 61.6875 6.125V6.125ZM61.6875 55.125C59.6651 55.1238 57.6538 54.8122 55.7185 54.2001L52.3492 53.1344L49.8611 55.7283L40.5169 65.4701L36.4661 61.25L32.3125 65.5804L36.3633 69.8036L31.7044 74.6607L27.6536 70.4375L23.5 74.7679L27.5508 78.9911L21.0677 85.75H11.75V76.0357L40.5434 46.0171L43.0344 43.4232L42.0121 39.9105C40.7566 35.5954 40.8381 30.9774 42.2452 26.7135C43.6523 22.4495 46.3132 18.7567 49.8495 16.1603C53.3858 13.5639 57.6173 12.1962 61.9422 12.2516C66.267 12.3071 70.465 13.783 73.9389 16.4693C77.4129 19.1556 79.9859 22.9155 81.2919 27.2143C82.5979 31.5131 82.5705 36.1317 81.2135 40.4133C79.8565 44.6949 77.239 48.4213 73.7335 51.0626C70.2279 53.7038 66.0127 55.1254 61.6875 55.125V55.125Z" fill="#111111" fill-opacity="0.8"/>
<path d="M64.625 36.75C67.8697 36.75 70.5 34.0077 70.5 30.625C70.5 27.2423 67.8697 24.5 64.625 24.5C61.3803 24.5 58.75 27.2423 58.75 30.625C58.75 34.0077 61.3803 36.75 64.625 36.75Z" fill="#111111"/>
</svg>
