<svg width="21" height="20" viewBox="0 0 21 20" fill="none" xmlns="http://www.w3.org/2000/svg">
<path d="M6.073 9.901L2.212 6.04C0.692 7.697 0.116 9.357 0.106 9.391L0 9.707L0.105 10.023C0.127 10.09 2.421 16.707 10.054 16.707C10.983 16.707 11.829 16.605 12.606 16.434L9.86 13.688C8.87128 13.6395 7.93595 13.225 7.23598 12.525C6.53601 11.825 6.12147 10.8897 6.073 9.901V9.901ZM10.054 2.707C8.199 2.707 6.679 3.111 5.412 3.705L1.707 0L0.293 1.414L18.293 19.414L19.707 18L16.409 14.702C19.047 12.749 19.988 10.065 20.002 10.023L20.107 9.707L20.002 9.391C19.98 9.324 17.687 2.707 10.054 2.707ZM11.96 10.253C12.147 9.576 11.988 8.814 11.468 8.293C10.948 7.772 10.185 7.614 9.508 7.801L8 6.293C8.61796 5.91298 9.32855 5.71025 10.054 5.707C12.26 5.707 14.054 7.501 14.054 9.707C14.051 10.4323 13.8479 11.1427 13.467 11.76L11.96 10.253V10.253Z" fill="#111111" fill-opacity="0.75"/>
</svg>
