<svg width="192" height="198" viewBox="0 0 192 198" fill="none" xmlns="http://www.w3.org/2000/svg">
<g opacity="0.8">
<path d="M90.4 18.645L42.4 37.2075C36.16 39.6825 32 45.7875 32 52.7175V91.575C32 133.237 59.28 172.095 96 181.583C132.72 172.095 160 133.237 160 91.575V52.7175C159.994 49.3602 158.996 46.0847 157.137 43.3281C155.279 40.5715 152.65 38.465 149.6 37.29L101.6 18.7275C98 17.2425 94 17.2425 90.4 18.645V18.645ZM81.84 122.347L64.88 104.857C64.1393 104.094 63.5518 103.187 63.151 102.189C62.7501 101.191 62.5438 100.121 62.5438 99.0412C62.5438 97.9611 62.7501 96.8915 63.151 95.8935C63.5518 94.8956 64.1393 93.9888 64.88 93.225C65.6207 92.4612 66.4999 91.8553 67.4677 91.4419C68.4354 91.0286 69.4726 90.8158 70.52 90.8158C71.5674 90.8158 72.6046 91.0286 73.5723 91.4419C74.5401 91.8553 75.4193 92.4612 76.16 93.225L87.44 104.857L115.76 75.6525C116.501 74.8887 117.38 74.2828 118.348 73.8694C119.315 73.4561 120.353 73.2433 121.4 73.2433C122.447 73.2433 123.485 73.4561 124.452 73.8694C125.42 74.2828 126.299 74.8887 127.04 75.6525C127.781 76.4163 128.368 77.3231 128.769 78.321C129.17 79.319 129.376 80.3886 129.376 81.4687C129.376 82.5489 129.17 83.6185 128.769 84.6165C128.368 85.6144 127.781 86.5212 127.04 87.285L93.12 122.265C90.08 125.565 84.96 125.565 81.84 122.347V122.347Z" fill="#111111"/>
</g>
</svg>
