<svg width="21" height="19" viewBox="0 0 21 19" fill="none" xmlns="http://www.w3.org/2000/svg">
<path fill-rule="evenodd" clip-rule="evenodd" d="M21 9.5C21 9.85987 20.8617 10.205 20.6156 10.4595C20.3695 10.7139 20.0357 10.8569 19.6876 10.8569H4.48272L10.118 16.6807C10.24 16.8069 10.3368 16.9566 10.4028 17.1215C10.4688 17.2863 10.5028 17.463 10.5028 17.6414C10.5028 17.8198 10.4688 17.9965 10.4028 18.1613C10.3368 18.3261 10.24 18.4759 10.118 18.6021C9.99595 18.7282 9.85109 18.8283 9.69167 18.8966C9.53225 18.9649 9.36138 19 9.18882 19C9.01626 19 8.84539 18.9649 8.68597 18.8966C8.52655 18.8283 8.38169 18.7282 8.25967 18.6021L0.385553 10.4607C0.263338 10.3346 0.166374 10.1849 0.100214 10.0201C0.0340546 9.8552 0 9.67848 0 9.5C0 9.32152 0.0340546 9.1448 0.100214 8.97995C0.166374 8.8151 0.263338 8.66536 0.385553 8.53932L8.25967 0.397929C8.5061 0.143139 8.84032 0 9.18882 0C9.53732 0 9.87154 0.143139 10.118 0.397929C10.3644 0.652718 10.5028 0.998286 10.5028 1.35861C10.5028 1.71894 10.3644 2.06451 10.118 2.3193L4.48272 8.1431H19.6876C20.0357 8.1431 20.3695 8.28606 20.6156 8.54053C20.8617 8.795 21 9.14013 21 9.5Z" fill="white"/>
</svg>
